<svg xmlns="http://www.w3.org/2000/svg" width="1452.136" height="1173.205" viewBox="0 0 1452.136 1173.205"><g transform="translate(127.095 -303.77) rotate(14)"><g transform="translate(160.526 201.371)"><g transform="translate(287.47)"><path d="M801.547,1169.915H748.853V995.452H461.382v-400.5H173.894V542.261C173.894,354.705,326.5,202.1,514.076,202.1c170.869,0,312.723,126.649,336.615,291.019,164.37,23.893,291.02,165.747,291.02,336.633C1141.711,1017.305,989.1,1169.915,801.547,1169.915ZM566.771,889.17h283.92l3.549,169.387c104.17-23.981,182.082-117.485,182.082-228.807,0-129.458-105.318-234.794-234.776-234.794H748.853V542.261c0-129.44-105.318-234.776-234.776-234.776-111.357,0-204.844,77.911-228.825,182.082h281.52Z" transform="translate(-173.894 -202.097)" fill="#f1f6f8"/></g><g transform="translate(0 287.47)"><path d="M550.474,898.723H497.78c-187.556,0-340.164-152.609-340.164-340.165,0-187.574,152.609-340.182,340.164-340.182h52.695ZM445.086,329.733C340.915,353.714,263,447.219,263,558.558c0,111.322,77.911,204.826,182.082,228.807Z" transform="translate(-157.615 -218.376)" fill="#f1f6f8"/></g></g></g></svg>