<svg xmlns="http://www.w3.org/2000/svg" width="35.998" height="27.758" viewBox="0 0 35.998 27.758"><g transform="translate(-157.615 -202)"><g transform="translate(157.615 202)"><g transform="translate(8.245)"><path d="M191.893,229.855h-1.511v-5h-8.244V213.364h-8.244v-1.511a9.755,9.755,0,0,1,19.408-1.41,9.757,9.757,0,0,1-1.409,19.411ZM185.16,221.8H193.3l.1,4.858a6.734,6.734,0,0,0-1.511-13.3h-1.511v-1.511a6.733,6.733,0,0,0-13.294-1.511h8.073Z" transform="translate(-173.894 -202.097)" fill="#2d35ed"/></g><g transform="translate(0 8.245)"><path d="M168.882,237.889h-1.511a9.756,9.756,0,0,1,0-19.513h1.511ZM165.86,221.57a6.735,6.735,0,0,0,0,13.125Z" transform="translate(-157.615 -218.376)" fill="#2d35ed"/></g></g></g></svg>