<svg xmlns="http://www.w3.org/2000/svg" width="256" height="256" viewBox="0 0 1254 1254" version="1.1"><path d="M 606.500 220.649 C 604.850 220.842, 599.225 221.478, 594 222.062 C 542.631 227.812, 490.741 249.736, 449 283.325 C 431.085 297.741, 410.154 320.117, 396.010 339.973 C 370.534 375.738, 352.786 421.145, 347.925 463 C 347.254 468.775, 346.320 473.998, 345.849 474.607 C 345.378 475.215, 341.282 476.017, 336.747 476.388 C 317.159 477.992, 290.554 483.850, 272.475 490.540 C 226.100 507.701, 185.156 538.430, 155.182 578.571 C 125.150 618.790, 108.359 661.315, 102.959 710.830 C 101.047 728.358, 102.188 760.880, 105.350 779 C 117.784 850.249, 159.895 912.889, 221 951.031 C 244.037 965.410, 274.818 977.565, 301.980 983.009 C 322.122 987.046, 338.244 988.209, 368.500 987.811 C 399.145 987.407, 401.823 986.761, 412.017 977.324 C 436.258 954.881, 426.459 914.865, 394.650 906.395 C 391.011 905.426, 382.812 905.020, 366.711 905.012 C 354.176 905.005, 339.551 904.526, 334.211 903.946 C 261.442 896.050, 203.990 843.867, 188.006 771.150 C 178.187 726.482, 188.167 676.618, 214.881 636.870 C 248.002 587.587, 303.102 558.145, 362.500 557.990 C 380.015 557.945, 389.391 556.511, 397.569 552.628 C 409.865 546.788, 417.678 537.983, 421.977 525.117 C 423.644 520.132, 424.311 514.658, 425.028 500.117 C 426.674 466.703, 432.337 444.110, 446.004 416.432 C 478.063 351.510, 541.726 308.848, 613.698 304.058 C 662.370 300.818, 709.459 315.310, 749.500 345.851 C 758.497 352.714, 777.410 371.441, 784.491 380.500 C 812.566 416.412, 828 460.075, 828 503.587 C 828 510.264, 828.456 518.151, 829.014 521.114 C 831.996 536.955, 845.401 551.271, 861.350 555.647 C 864.491 556.509, 875.667 557.413, 890 557.966 C 919.670 559.110, 930.078 560.848, 950.586 568.087 C 977.220 577.487, 998.810 591.636, 1019.732 613.399 C 1045.903 640.622, 1061.872 673.675, 1067.609 712.500 C 1069.848 727.649, 1069.128 753.398, 1066.057 768 C 1053.698 826.759, 1015.005 873.391, 960.771 894.886 C 950.623 898.908, 940.420 901.628, 927 903.888 C 904.088 907.747, 894.624 913.898, 887.188 929.765 C 884.781 934.900, 884.500 936.651, 884.500 946.500 C 884.500 956.775, 884.708 957.940, 887.665 964.180 C 891.901 973.121, 897.767 979.269, 905.864 983.250 C 912.229 986.380, 912.914 986.498, 924.486 986.458 C 966.589 986.310, 1024.890 961.794, 1064.894 927.414 C 1093.587 902.755, 1119.133 866.997, 1132.859 832.280 C 1146.138 798.692, 1151 772.883, 1151 735.976 C 1151 695.389, 1143.812 662.318, 1127.206 626.500 C 1096.664 560.622, 1041.405 510.580, 974.380 488.102 C 957.861 482.562, 935.604 477.763, 918.670 476.089 C 912.713 475.500, 907.471 474.791, 907.022 474.513 C 906.572 474.235, 905.894 470.744, 905.516 466.754 C 904.350 454.452, 899.141 429.701, 894.893 416.282 C 873.438 348.496, 827.366 291.987, 764.346 256.163 C 723.061 232.694, 672.881 219.698, 625.293 220.150 C 616.607 220.232, 608.150 220.457, 606.500 220.649 M 526.398 519.889 C 509.704 524.669, 496.093 539.341, 493.005 555.886 C 492.354 559.378, 492 629.385, 492 754.926 C 492 925.684, 492.181 949.276, 493.533 954.465 C 497.034 967.905, 505.565 978.215, 518.448 984.576 L 526.395 988.500 665.883 988.767 C 791.218 989.007, 805.935 988.872, 810.935 987.436 C 826.624 982.929, 839.288 968.042, 842.277 950.594 C 845.272 933.111, 836.171 913.480, 820.786 904.235 C 810.320 897.945, 812.110 898.037, 699 898.014 C 599.182 897.993, 596.416 897.942, 593.304 896.044 C 591.547 894.972, 589.297 892.856, 588.304 891.342 C 586.588 888.724, 586.475 880.372, 586 721.044 L 585.500 553.500 583.334 548.219 C 578.298 535.938, 570.891 527.932, 559.643 522.611 C 549.200 517.670, 537.496 516.712, 526.398 519.889" stroke="none" fill="#1d24ec" fill-rule="evenodd"/></svg>
